<svg width="212" height="60" viewBox="0 0 212 60" fill="none" xmlns="http://www.w3.org/2000/svg">
<path d="M0 30C0 20.6812 0 16.0218 1.52241 12.3463C3.55229 7.44577 7.44577 3.55229 12.3463 1.52241C16.0218 0 20.6812 0 30 0C39.3188 0 43.9782 0 47.6537 1.52241C52.5542 3.55229 56.4477 7.44577 58.4776 12.3463C60 16.0218 60 20.6812 60 30C60 39.3188 60 43.9782 58.4776 47.6537C56.4477 52.5542 52.5542 56.4477 47.6537 58.4776C43.9782 60 39.3188 60 30 60C20.6812 60 16.0218 60 12.3463 58.4776C7.44577 56.4477 3.55229 52.5542 1.52241 47.6537C0 43.9782 0 39.3188 0 30Z" fill="url(#paint0_linear_1_40)"/>
<path d="M85.256 20.1V23.664H80.153V39H76.427V23.664H71.351V20.1H85.256ZM87.1249 33.681C87.5929 35.373 88.8619 36.219 90.9319 36.219C92.2639 36.219 93.2719 35.769 93.9559 34.869L96.7639 36.489C95.4319 38.415 93.4699 39.378 90.8779 39.378C88.6459 39.378 86.8549 38.703 85.5049 37.353C84.1549 36.003 83.4799 34.302 83.4799 32.25C83.4799 30.216 84.1459 28.524 85.4779 27.174C86.8099 25.806 88.5199 25.122 90.6079 25.122C92.5879 25.122 94.2169 25.806 95.4949 27.174C96.7909 28.542 97.4389 30.234 97.4389 32.25C97.4389 32.7 97.3939 33.177 97.3039 33.681H87.1249ZM87.0709 30.981H93.9559C93.7579 30.063 93.3439 29.379 92.7139 28.929C92.1019 28.479 91.3999 28.254 90.6079 28.254C89.6719 28.254 88.8979 28.497 88.2859 28.983C87.6739 29.451 87.2689 30.117 87.0709 30.981ZM99.3304 39V19.29H102.813V39H99.3304ZM108.404 33.681C108.872 35.373 110.141 36.219 112.211 36.219C113.543 36.219 114.551 35.769 115.235 34.869L118.043 36.489C116.711 38.415 114.749 39.378 112.157 39.378C109.925 39.378 108.134 38.703 106.784 37.353C105.434 36.003 104.759 34.302 104.759 32.25C104.759 30.216 105.425 28.524 106.757 27.174C108.089 25.806 109.799 25.122 111.887 25.122C113.867 25.122 115.496 25.806 116.774 27.174C118.07 28.542 118.718 30.234 118.718 32.25C118.718 32.7 118.673 33.177 118.583 33.681H108.404ZM108.35 30.981H115.235C115.037 30.063 114.623 29.379 113.993 28.929C113.381 28.479 112.679 28.254 111.887 28.254C110.951 28.254 110.177 28.497 109.565 28.983C108.953 29.451 108.548 30.117 108.35 30.981ZM130.845 25.5H134.247V38.352C134.247 40.44 133.554 42.033 132.168 43.131C130.8 44.229 129.144 44.778 127.2 44.778C125.742 44.778 124.455 44.499 123.339 43.941C122.241 43.383 121.395 42.564 120.801 41.484L123.771 39.783C124.455 41.043 125.634 41.673 127.308 41.673C128.406 41.673 129.27 41.385 129.9 40.809C130.53 40.233 130.845 39.414 130.845 38.352V36.894C129.819 38.262 128.379 38.946 126.525 38.946C124.617 38.946 123.015 38.28 121.719 36.948C120.441 35.598 119.802 33.96 119.802 32.034C119.802 30.126 120.45 28.497 121.746 27.147C123.042 25.797 124.635 25.122 126.525 25.122C128.379 25.122 129.819 25.806 130.845 27.174V25.5ZM124.338 34.707C125.058 35.391 125.967 35.733 127.065 35.733C128.163 35.733 129.063 35.391 129.765 34.707C130.485 34.005 130.845 33.114 130.845 32.034C130.845 30.972 130.485 30.099 129.765 29.415C129.063 28.713 128.163 28.362 127.065 28.362C125.967 28.362 125.058 28.713 124.338 29.415C123.636 30.099 123.285 30.972 123.285 32.034C123.285 33.114 123.636 34.005 124.338 34.707ZM147.126 25.5H150.609V39H147.126V37.407C146.082 38.721 144.615 39.378 142.725 39.378C140.925 39.378 139.377 38.694 138.081 37.326C136.803 35.94 136.164 34.248 136.164 32.25C136.164 30.252 136.803 28.569 138.081 27.201C139.377 25.815 140.925 25.122 142.725 25.122C144.615 25.122 146.082 25.779 147.126 27.093V25.5ZM140.7 35.004C141.402 35.706 142.293 36.057 143.373 36.057C144.453 36.057 145.344 35.706 146.046 35.004C146.766 34.284 147.126 33.366 147.126 32.25C147.126 31.134 146.766 30.225 146.046 29.523C145.344 28.803 144.453 28.443 143.373 28.443C142.293 28.443 141.402 28.803 140.7 29.523C139.998 30.225 139.647 31.134 139.647 32.25C139.647 33.366 139.998 34.284 140.7 35.004ZM164.81 29.199C166.466 30.153 167.294 31.593 167.294 33.519C167.294 35.121 166.727 36.435 165.593 37.461C164.459 38.487 163.064 39 161.408 39H153.389V20.1H160.841C162.461 20.1 163.82 20.604 164.918 21.612C166.034 22.602 166.592 23.871 166.592 25.419C166.592 26.985 165.998 28.245 164.81 29.199ZM160.841 23.583H157.115V27.741H160.841C161.417 27.741 161.894 27.543 162.272 27.147C162.668 26.751 162.866 26.256 162.866 25.662C162.866 25.068 162.677 24.573 162.299 24.177C161.921 23.781 161.435 23.583 160.841 23.583ZM161.408 35.517C162.038 35.517 162.56 35.31 162.974 34.896C163.388 34.464 163.595 33.924 163.595 33.276C163.595 32.646 163.388 32.124 162.974 31.71C162.56 31.278 162.038 31.062 161.408 31.062H157.115V35.517H161.408ZM180.748 37.326C179.362 38.694 177.67 39.378 175.672 39.378C173.674 39.378 171.982 38.694 170.596 37.326C169.228 35.94 168.544 34.248 168.544 32.25C168.544 30.252 169.228 28.569 170.596 27.201C171.982 25.815 173.674 25.122 175.672 25.122C177.67 25.122 179.362 25.815 180.748 27.201C182.134 28.569 182.827 30.252 182.827 32.25C182.827 34.248 182.134 35.94 180.748 37.326ZM173.053 34.923C173.755 35.625 174.628 35.976 175.672 35.976C176.716 35.976 177.589 35.625 178.291 34.923C178.993 34.221 179.344 33.33 179.344 32.25C179.344 31.17 178.993 30.279 178.291 29.577C177.589 28.875 176.716 28.524 175.672 28.524C174.628 28.524 173.755 28.875 173.053 29.577C172.369 30.279 172.027 31.17 172.027 32.25C172.027 33.33 172.369 34.221 173.053 34.923ZM187.66 29.334C187.66 29.694 187.894 29.991 188.362 30.225C188.848 30.441 189.433 30.639 190.117 30.819C190.801 30.981 191.485 31.197 192.169 31.467C192.853 31.719 193.429 32.151 193.897 32.763C194.383 33.375 194.626 34.14 194.626 35.058C194.626 36.444 194.104 37.515 193.06 38.271C192.034 39.009 190.747 39.378 189.199 39.378C186.427 39.378 184.537 38.307 183.529 36.165L186.553 34.464C186.949 35.634 187.831 36.219 189.199 36.219C190.441 36.219 191.062 35.832 191.062 35.058C191.062 34.698 190.819 34.41 190.333 34.194C189.865 33.96 189.289 33.753 188.605 33.573C187.921 33.393 187.237 33.168 186.553 32.898C185.869 32.628 185.284 32.205 184.798 31.629C184.33 31.035 184.096 30.297 184.096 29.415C184.096 28.083 184.582 27.039 185.554 26.283C186.544 25.509 187.768 25.122 189.226 25.122C190.324 25.122 191.323 25.374 192.223 25.878C193.123 26.364 193.834 27.066 194.356 27.984L191.386 29.604C190.954 28.686 190.234 28.227 189.226 28.227C188.776 28.227 188.398 28.326 188.092 28.524C187.804 28.722 187.66 28.992 187.66 29.334ZM198.827 29.334C198.827 29.694 199.061 29.991 199.529 30.225C200.015 30.441 200.6 30.639 201.284 30.819C201.968 30.981 202.652 31.197 203.336 31.467C204.02 31.719 204.596 32.151 205.064 32.763C205.55 33.375 205.793 34.14 205.793 35.058C205.793 36.444 205.271 37.515 204.227 38.271C203.201 39.009 201.914 39.378 200.366 39.378C197.594 39.378 195.704 38.307 194.696 36.165L197.72 34.464C198.116 35.634 198.998 36.219 200.366 36.219C201.608 36.219 202.229 35.832 202.229 35.058C202.229 34.698 201.986 34.41 201.5 34.194C201.032 33.96 200.456 33.753 199.772 33.573C199.088 33.393 198.404 33.168 197.72 32.898C197.036 32.628 196.451 32.205 195.965 31.629C195.497 31.035 195.263 30.297 195.263 29.415C195.263 28.083 195.749 27.039 196.721 26.283C197.711 25.509 198.935 25.122 200.393 25.122C201.491 25.122 202.49 25.374 203.39 25.878C204.29 26.364 205.001 27.066 205.523 27.984L202.553 29.604C202.121 28.686 201.401 28.227 200.393 28.227C199.943 28.227 199.565 28.326 199.259 28.524C198.971 28.722 198.827 28.992 198.827 29.334Z" fill="#292930"/>
<g clip-path="url(#clip0_1_40)">
<path d="M20.2867 16H44.2367C44.4391 16 44.6333 16.0778 44.7764 16.2163C44.9196 16.3548 45 16.5427 45 16.7386V21.1832C45 22.0558 44.8224 22.9198 44.4773 23.726C44.1321 24.5321 43.6263 25.2646 42.9886 25.8816C41.7007 27.1277 39.954 27.8278 38.1326 27.8278H15.344C15.1673 27.8278 14.9923 27.7941 14.8291 27.7285C14.6658 27.663 14.5175 27.567 14.3927 27.446C14.2679 27.3249 14.1689 27.1813 14.1015 27.0232C14.0341 26.8651 13.9996 26.6957 14 26.5247V22.0827C14 20.4695 14.6623 18.9223 15.8413 17.7816C17.0203 16.6409 18.6194 16 20.2867 16Z" fill="white"/>
<path d="M26.3962 32.1722H34.2723C34.3955 32.1722 34.5138 32.2188 34.602 32.3021C34.6901 32.3854 34.7411 32.4988 34.7439 32.618V39.9035C34.7439 40.4415 34.6344 40.9742 34.4216 41.4712C34.2089 41.9682 33.897 42.4198 33.5039 42.8002C33.1107 43.1806 32.644 43.4823 32.1303 43.6882C31.6166 43.894 31.0661 44 30.5101 44H23.3483C23.1314 44 22.9233 43.9166 22.7699 43.7682C22.6166 43.6198 22.5304 43.4185 22.5304 43.2087V35.9231C22.5304 34.9301 22.9373 33.9777 23.662 33.2746C24.3867 32.5714 25.3699 32.175 26.3962 32.1722Z" fill="white"/>
</g>
<defs>
<linearGradient id="paint0_linear_1_40" x1="0" y1="0" x2="48.5" y2="60" gradientUnits="userSpaceOnUse">
<stop stop-color="#6C66EF"/>
<stop offset="1" stop-color="#9B92FF"/>
</linearGradient>
<clipPath id="clip0_1_40">
<rect width="31" height="28" fill="white" transform="translate(14 16)"/>
</clipPath>
</defs>
</svg>
